<svg xmlns="http://www.w3.org/2000/svg" version="1.1" xmlns:xlink="http://www.w3.org/1999/xlink" xmlns:svgjs="http://svgjs.com/svgjs" width="1000" height="1000"><style>
    #light-icon {
      display: inline;
    }
    #dark-icon {
      display: none;
    }

    @media (prefers-color-scheme: dark) {
      #light-icon {
        display: none;
      }
      #dark-icon {
        display: inline;
      }
    }
  </style><g id="light-icon"><svg xmlns="http://www.w3.org/2000/svg" version="1.1" xmlns:xlink="http://www.w3.org/1999/xlink" xmlns:svgjs="http://svgjs.com/svgjs" width="1000" height="1000"><rect width="1000" height="1000" rx="200" ry="200" fill="#000000"></rect><g transform="matrix(1.6,0,0,1.6,99.92511100769042,97.75868377685543)"><svg xmlns="http://www.w3.org/2000/svg" version="1.1" xmlns:xlink="http://www.w3.org/1999/xlink" xmlns:svgjs="http://svgjs.com/svgjs" width="500" height="500"><svg xmlns="http://www.w3.org/2000/svg" xmlns:xlink="http://www.w3.org/1999/xlink" width="500" zoomAndPan="magnify" viewBox="0 0 375 374.999991" height="500" preserveAspectRatio="xMidYMid meet" version="1.0"><defs><g></g></defs><path stroke-linecap="butt" transform="matrix(1.337902, 0, 0, 1.337902, -29.163577, -116.253676)" fill="none" stroke-linejoin="miter" d="M 30.813966 298.858522 L 110.462902 172.015839 L 97.990019 172.015839 L 54.057557 192.424419 L 65.25162 141.686177 L 171.968933 141.686177 L 91.896642 268.528861 L 104.935944 268.528861 L 148.72826 248.120281 L 137.674343 298.858522 Z M 30.813966 298.858522 " stroke="#ffffff" stroke-width="11.247381" stroke-opacity="1" stroke-miterlimit="4"></path><g fill="#ffffff" fill-opacity="1"><g transform="translate(11.872397, 283.779127)"><g><path d="M 0.1875 -0.1875 L 106.75 -169.890625 L 90.0625 -169.890625 L 31.28125 -142.59375 L 46.265625 -210.46875 L 189.046875 -210.46875 L 81.90625 -40.765625 L 99.359375 -40.765625 L 157.953125 -68.078125 L 143.15625 -0.1875 Z M 0.1875 -0.1875 "></path></g></g></g><path stroke-linecap="butt" transform="matrix(1.337902, 0, 0, 1.337902, 153.221054, -116.253676)" fill="none" stroke-linejoin="miter" d="M 62.642985 222.184742 L 113.80458 142.112451 L 156.887414 142.112451 L 108.417766 218.359958 L 121.600132 298.432249 L 83.048645 316.575155 Z M 79.080797 142.112451 L 64.768513 207.30604 L 51.586147 225.302963 L 58.389007 236.643009 L 44.643142 299.284796 L 5.385092 299.284796 L 34.865126 164.080142 L 18.141185 142.112451 Z M 79.080797 142.112451 " stroke="#ffffff" stroke-width="11.247381" stroke-opacity="1" stroke-miterlimit="4"></path><g fill="#1791c8" fill-opacity="1"><g transform="translate(153.221054, 283.779127)"><g><path d="M 83.8125 -102.765625 L 152.265625 -209.90625 L 209.90625 -209.90625 L 145.046875 -107.890625 L 162.6875 -0.765625 L 111.109375 23.515625 Z M 105.796875 -209.90625 L 86.65625 -122.6875 L 69.015625 -98.59375 L 78.125 -83.4375 L 59.734375 0.375 L 7.203125 0.375 L 46.640625 -180.515625 L 24.265625 -209.90625 Z M 105.796875 -209.90625 "></path></g></g></g></svg></svg></g></svg></g><g id="dark-icon"><svg xmlns="http://www.w3.org/2000/svg" version="1.1" xmlns:xlink="http://www.w3.org/1999/xlink" xmlns:svgjs="http://svgjs.com/svgjs" width="1000" height="1000"><rect width="1000" height="1000" rx="200" ry="200" fill="#eeeeee"></rect><g transform="matrix(1.6,0,0,1.6,99.92511100769042,97.75868377685543)"><svg xmlns="http://www.w3.org/2000/svg" version="1.1" xmlns:xlink="http://www.w3.org/1999/xlink" xmlns:svgjs="http://svgjs.com/svgjs" width="500" height="500"><svg xmlns="http://www.w3.org/2000/svg" xmlns:xlink="http://www.w3.org/1999/xlink" width="500" zoomAndPan="magnify" viewBox="0 0 375 374.999991" height="500" preserveAspectRatio="xMidYMid meet" version="1.0"><defs><g></g></defs><path stroke-linecap="butt" transform="matrix(1.337902, 0, 0, 1.337902, -29.163577, -116.253676)" fill="none" stroke-linejoin="miter" d="M 30.813966 298.858522 L 110.462902 172.015839 L 97.990019 172.015839 L 54.057557 192.424419 L 65.25162 141.686177 L 171.968933 141.686177 L 91.896642 268.528861 L 104.935944 268.528861 L 148.72826 248.120281 L 137.674343 298.858522 Z M 30.813966 298.858522 " stroke="#ffffff" stroke-width="11.247381" stroke-opacity="1" stroke-miterlimit="4"></path><g fill="#000000" fill-opacity="1"><g transform="translate(11.872397, 283.779127)"><g><path d="M 0.1875 -0.1875 L 106.75 -169.890625 L 90.0625 -169.890625 L 31.28125 -142.59375 L 46.265625 -210.46875 L 189.046875 -210.46875 L 81.90625 -40.765625 L 99.359375 -40.765625 L 157.953125 -68.078125 L 143.15625 -0.1875 Z M 0.1875 -0.1875 "></path></g></g></g><path stroke-linecap="butt" transform="matrix(1.337902, 0, 0, 1.337902, 153.221054, -116.253676)" fill="none" stroke-linejoin="miter" d="M 62.642985 222.184742 L 113.80458 142.112451 L 156.887414 142.112451 L 108.417766 218.359958 L 121.600132 298.432249 L 83.048645 316.575155 Z M 79.080797 142.112451 L 64.768513 207.30604 L 51.586147 225.302963 L 58.389007 236.643009 L 44.643142 299.284796 L 5.385092 299.284796 L 34.865126 164.080142 L 18.141185 142.112451 Z M 79.080797 142.112451 " stroke="#ffffff" stroke-width="11.247381" stroke-opacity="1" stroke-miterlimit="4"></path><g fill="#1791c8" fill-opacity="1"><g transform="translate(153.221054, 283.779127)"><g><path d="M 83.8125 -102.765625 L 152.265625 -209.90625 L 209.90625 -209.90625 L 145.046875 -107.890625 L 162.6875 -0.765625 L 111.109375 23.515625 Z M 105.796875 -209.90625 L 86.65625 -122.6875 L 69.015625 -98.59375 L 78.125 -83.4375 L 59.734375 0.375 L 7.203125 0.375 L 46.640625 -180.515625 L 24.265625 -209.90625 Z M 105.796875 -209.90625 "></path></g></g></g></svg></svg></g></svg></g></svg>